<svg xmlns="http://www.w3.org/2000/svg" xmlns:xlink="http://www.w3.org/1999/xlink" version="1.1" x="0px" y="0px" viewBox="0 0 100 125" enable-background="new 0 0 100 100" xml:space="preserve"><path fill="#000000" d="M54.179,50.744c1.189-1.117,1.938-2.699,1.938-4.456c0-3.374-2.744-6.118-6.119-6.118  c-3.373,0-6.117,2.744-6.117,6.118c0,1.049,0.273,2.09,0.795,3.011c0.082,0.144,0.171,0.282,0.273,0.435  c0.256,0.373,0.55,0.708,0.872,1.011c-2.851,1.438-4.896,4.294-5.146,7.657c-0.028,0.369,0.1,0.732,0.352,1.004  c0.251,0.271,0.604,0.425,0.975,0.425h15.996c0.37,0,0.723-0.154,0.975-0.425c0.252-0.271,0.379-0.635,0.352-1.004  C59.074,55.038,57.029,52.183,54.179,50.744z M48.467,49.383c-0.092-0.048-0.182-0.096-0.273-0.152  c-0.416-0.255-0.77-0.593-1.043-0.99c-0.056-0.083-0.111-0.167-0.16-0.252c-0.299-0.528-0.449-1.101-0.449-1.7  c0-1.907,1.551-3.458,3.457-3.458c1.908,0,3.458,1.551,3.458,3.458c0,1.904-1.547,3.453-3.452,3.457c-0.001,0-0.003,0-0.005,0  s-0.005,0-0.007,0C49.458,49.745,48.938,49.62,48.467,49.383z M43.594,57.17c0.836-2.759,3.414-4.761,6.398-4.764  c0.002,0,0.004,0,0.006,0c0.003,0,0.006,0,0.009,0c2.985,0.003,5.564,2.004,6.399,4.764H43.594z"/><text x="0" y="115" fill="#000000" font-size="5px" font-weight="bold" font-family="'Helvetica Neue', Helvetica, Arial-Unicode, Arial, Sans-serif">Created by Cy Me</text><text x="0" y="120" fill="#000000" font-size="5px" font-weight="bold" font-family="'Helvetica Neue', Helvetica, Arial-Unicode, Arial, Sans-serif">from the Noun Project</text></svg>