<svg xmlns="http://www.w3.org/2000/svg" xmlns:xlink="http://www.w3.org/1999/xlink" version="1.1" x="0px" y="0px" viewBox="0 0 100 125" enable-background="new 0 0 100 100" xml:space="preserve"><path d="M50,8.6c22.827,0,41.4,18.573,41.4,41.4c0,22.829-18.573,41.4-41.4,41.4S8.6,72.829,8.6,50C8.6,27.173,27.173,8.6,50,8.6   M50,5C25.148,5,5,25.148,5,50c0,24.854,20.148,45,45,45s45-20.146,45-45C95,25.148,74.852,5,50,5"/><polygon points="48.2,19.4 48.2,51.8 26.6,51.8 26.6,55.4 51.8,55.4 51.8,19.4 "/><text x="0" y="115" fill="#000000" font-size="5px" font-weight="bold" font-family="'Helvetica Neue', Helvetica, Arial-Unicode, Arial, Sans-serif">Created by Vicons Design</text><text x="0" y="120" fill="#000000" font-size="5px" font-weight="bold" font-family="'Helvetica Neue', Helvetica, Arial-Unicode, Arial, Sans-serif">from the Noun Project</text></svg>