<svg xmlns="http://www.w3.org/2000/svg" xmlns:xlink="http://www.w3.org/1999/xlink" version="1.1" x="0px" y="0px" viewBox="0 0 72 90" enable-background="new 0 0 72 72" xml:space="preserve"><g><circle fill="#000000" cx="24.1" cy="28.2" r="12.5"/><path fill="#000000" d="M24.1,47.8c-12.4,0-22.6,9.6-23.6,21.7c-0.1,1,0.7,1.9,1.8,1.9h43.6c1,0,1.9-0.9,1.8-1.9   C46.7,57.4,36.6,47.8,24.1,47.8z"/><path fill="#000000" d="M56,0.5c-8.5,0-15.4,6.8-15.4,15.2c0,8.4,6.9,15.2,15.4,15.2c8.5,0,15.4-6.8,15.4-15.2   C71.5,7.3,64.6,0.5,56,0.5z M63.9,17.2h-7.6c-1,0-1.8-0.8-1.8-1.8V5.8c0-0.8,0.7-1.5,1.5-1.5c0.8,0,1.5,0.7,1.5,1.5v7.5   c0,0.5,0.4,0.9,0.9,0.9h5.4c0.8,0,1.5,0.7,1.5,1.5C65.4,16.5,64.7,17.2,63.9,17.2z"/></g><text x="0" y="87" fill="#000000" font-size="5px" font-weight="bold" font-family="'Helvetica Neue', Helvetica, Arial-Unicode, Arial, Sans-serif">Created by Creative Stall</text><text x="0" y="92" fill="#000000" font-size="5px" font-weight="bold" font-family="'Helvetica Neue', Helvetica, Arial-Unicode, Arial, Sans-serif">from the Noun Project</text></svg>