<svg xmlns:sketch="http://www.bohemiancoding.com/sketch/ns" xmlns="http://www.w3.org/2000/svg" xmlns:xlink="http://www.w3.org/1999/xlink" version="1.1" x="0px" y="0px" viewBox="-189 470.8 100 125" style="enable-background:new -189 470.8 100 100;" xml:space="preserve"><style type="text/css">
	.st0{fill:none;stroke:#000000;stroke-width:3;stroke-linecap:round;stroke-linejoin:round;stroke-miterlimit:10;}
</style><path d="M-135,517.3c0.8,0,1.5-0.7,1.5-1.5s-0.7-1.5-1.5-1.5c-0.8,0-1.5,0.7-1.5,1.5S-135.8,517.3-135,517.3z M-112.5,505.8v-5  c0-5.3-3.7-9.8-8.6-11.1c-0.9-2.6-1.4-6.7-1.4-9.9c0-4.1-3.4-7.5-7.5-7.5h-18c-4.1,0-7.5,3.4-7.5,7.5c0,3.2-0.5,7.3-1.4,9.9  c-4.9,1.3-8.6,5.8-8.6,11.1v40c0,5.3,3.7,9.8,8.6,11.1c0.9,2.6,1.4,6.7,1.4,9.9c0,4.1,3.4,7.5,7.5,7.5h18c4.1,0,7.5-3.4,7.5-7.5  c0-3.2,0.5-7.3,1.4-9.9c4.9-1.3,8.6-5.8,8.6-11.1v-25c0.8,0,1.5-0.7,1.5-1.5v-7C-111,506.5-111.7,505.8-112.5,505.8z M-152.5,479.8  c0-2.5,2-4.5,4.5-4.5h18c2.5,0,4.5,2,4.5,4.5c0,1.4,0.1,5.8,1.1,9.5h-29.3C-152.6,485.6-152.5,481.2-152.5,479.8z M-125.5,561.8  c0,2.5-2,4.5-4.5,4.5h-18c-2.5,0-4.5-2-4.5-4.5c0-1.4-0.1-5.8-1.1-9.5h29.3C-125.4,556.1-125.5,560.4-125.5,561.8z M-115.5,540.8  c0,4.7-3.8,8.5-8.5,8.5h-30c-4.7,0-8.5-3.8-8.5-8.5v-40c0-4.7,3.8-8.5,8.5-8.5h30c4.7,0,8.5,3.8,8.5,8.5V540.8z M-126.5,505.8h-25  c-1.7,0-3,1.3-3,3v24c0,1.7,1.3,3,3,3h3v3.6c0,0.6,0.5,1,1,1c0.2,0,0.5-0.1,0.7-0.3l4.3-4.3h16c1.7,0,3-1.3,3-3v-24  C-123.5,507.2-124.8,505.8-126.5,505.8z M-126.5,532.8h-25v-24h25V532.8z M-139,528.3c4.1,0,7.5-3.4,7.5-7.5c0-0.8-0.7-1.5-1.5-1.5  s-1.5,0.7-1.5,1.5c0,2.5-2,4.5-4.5,4.5s-4.5-2-4.5-4.5c0-0.8-0.7-1.5-1.5-1.5s-1.5,0.7-1.5,1.5C-146.5,525-143.1,528.3-139,528.3z   M-143,517.3c0.8,0,1.5-0.7,1.5-1.5s-0.7-1.5-1.5-1.5c-0.8,0-1.5,0.7-1.5,1.5S-143.8,517.3-143,517.3z"/><text x="-189" y="585.8" fill="#000000" font-size="5px" font-weight="bold" font-family="'Helvetica Neue', Helvetica, Arial-Unicode, Arial, Sans-serif">Created by Yorlmar Campos</text><text x="-189" y="590.8" fill="#000000" font-size="5px" font-weight="bold" font-family="'Helvetica Neue', Helvetica, Arial-Unicode, Arial, Sans-serif">from the Noun Project</text></svg>